<svg width="120" height="120" viewBox="0 0 120 120" xmlns="http://www.w3.org/2000/svg" role="img" aria-labelledby="logoTitle logoDesc">
  <title id="logoTitle">Wimpy Books logo</title>
  <desc id="logoDesc">A minimalist open book and sparkle icon for Wimpy Books.</desc>
  <defs>
    <linearGradient id="logoGradient" x1="0%" y1="0%" x2="100%" y2="100%">
      <stop offset="0%" stop-color="#f6d365"/>
      <stop offset="100%" stop-color="#fda085"/>
    </linearGradient>
  </defs>
  <rect width="120" height="120" rx="24" fill="#1f1b24"/>
  <path d="M36 34c14 0 20 8 28 14 8-6 14-14 28-14v52c-14 0-20-8-28-14-8 6-14 14-28 14V34Z" fill="url(#logoGradient)"/>
  <path d="M36 34c14 0 20 10 28 16 8-6 14-16 28-16" stroke="#fff" stroke-width="4" fill="none" stroke-linecap="round"/>
  <path d="M36 86c14 0 20-10 28-16 8 6 14 16 28 16" stroke="#fff" stroke-width="4" fill="none" stroke-linecap="round"/>
  <circle cx="82" cy="32" r="6" fill="#fff" opacity="0.85"/>
  <circle cx="88" cy="44" r="4" fill="#fff" opacity="0.75"/>
</svg>
